Motion_pl11
version=1
nRows=10
nColumns=43
inDegrees=yes
endheader
time	pelvis_tilt	pelvis_list	pelvis_rotation	pelvis_tx	pelvis_ty	pelvis_tz	hip_flexion_r	hip_adduction_r	hip_rotation_r	knee_angle_r	ankle_angle_r	subtalar_angle_r	mtp_angle_r	hip_flexion_l	hip_adduction_l	hip_rotation_l	knee_angle_l	ankle_angle_l	subtalar_angle_l	mtp_angle_l	lumbar_extension	lumbar_bending	lumbar_rotation	neck_flexion	neck_lateral_bending	neck_rotation	arm_flex_r	arm_add_r	arm_rot_r	elbow_flex_r	pro_sup_r	wrist_flex_r	wrist_dev_r	hand_finger_flex_r	arm_flex_l	arm_add_l	arm_rot_l	elbow_flex_l	pro_sup_l	wrist_flex_l	wrist_dev_l	hand_finger_flex_l
      0.00250000	     -2.65912669	      5.12513688	     94.24574143	      0.03081834	      1.90614784	      1.90143677	     50.24784548	     -8.24367602	      0.95976426	   -114.82874861	     29.62550146	     -2.16318714	     -3.08111378	     50.64191880	     -4.89595607	      3.62661083	   -112.10329922	     30.59826737	      6.10165145	     10.86456367	    -54.20880949	     -0.77553057	     -6.35829341	      7.28589846	      0.19207881	      3.74410692	    -24.17356245	    -23.33853000	    -11.89435874	    104.47369250	    123.54381605	    -67.08603752	    -13.91464285	     32.57891233	    -17.53545378	    -21.54884107	    -42.58438071	    119.58580546	    139.44549534	    -58.88118384	      1.04903621	     65.64967942
      0.00500000	     -2.66581804	      5.11450444	     94.21543659	      0.03072920	      1.90543894	      1.90138342	     50.34388781	     -8.22551062	      1.02936567	   -114.96260033	     29.63096255	     -2.12826348	     -3.07790086	     50.72170659	     -4.88171900	      3.64427023	   -112.23445869	     30.60181337	      6.14906620	     10.87088944	    -54.36057838	     -0.76023421	     -6.31973284	      7.53844720	      0.13954510	      3.75544337	    -23.98197051	    -23.22843101	    -11.60699247	    103.76405214	    123.35403591	    -66.81013121	    -13.69712409	     32.68177855	    -17.71117411	    -21.37612763	    -41.99445935	    119.13452262	    139.40050968	    -58.61135539	      1.13650827	     65.72411350
      0.00750000	     -2.66322076	      4.97709781	     94.16755427	      0.03067494	      1.90418551	      1.90127361	     50.65428907	     -8.18147555	      1.14427659	   -115.18803625	     29.61484355	     -2.01104506	     -3.06319623	     50.97436282	     -4.88907023	      3.67132416	   -112.46838502	     30.60647650	      6.26792713	     10.90140815	    -54.27088130	     -0.78704634	     -6.27801262	      7.37974240	      0.18764513	      3.69212401	    -23.88404225	    -23.13025316	    -11.36637920	    103.21747061	    122.61305255	    -65.91642304	    -13.08135195	     33.15160356	    -17.92263821	    -21.19771036	    -41.45358430	    118.80582836	    139.07846355	    -57.56738545	      1.70839754	     65.98529440
      0.01000000	     -2.66531480	      4.95263076	     94.15305100	      0.03057485	      1.90349998	      1.90127064	     50.74646741	     -8.17284135	      1.19465634	   -115.32474915	     29.62644133	     -2.01280114	     -3.05709096	     51.08564202	     -4.84564636	      3.70911504	   -112.58916436	     30.62983728	      6.26373451	     10.91050587	    -54.44454252	     -0.74949615	     -6.23877500	      7.76632281	      0.12349044	      3.71274436	    -23.67670024	    -22.97865404	    -11.12593208	    102.50060240	    122.43734967	    -65.60518676	    -12.91294359	     33.25969082	    -18.05718487	    -21.04931630	    -40.88645641	    118.30755445	    139.03961465	    -57.23716303	      1.83290596	     66.04562584
      0.01250000	     -2.63190586	      4.75921005	     94.15860150	      0.03044939	      1.90210190	      1.90131426	     51.09986684	     -8.14840933	      1.24082979	   -115.55025691	     29.61668262	     -1.99416927	     -3.01618577	     51.45453775	     -4.80451162	      3.80033482	   -112.82571701	     30.60388833	      6.25350299	     10.97218487	    -54.35480746	     -0.69517437	     -6.15866475	      7.89225689	      0.10096509	      3.63482348	    -23.65955067	    -22.81078084	    -11.08126847	    102.08001757	    121.45654113	    -64.38323710	    -12.48296353	     33.79234998	    -18.20881296	    -20.87018278	    -40.43011311	    118.05474390	    138.75720805	    -55.42812557	      2.76442796	     66.20067311
      0.01500000	     -2.62736841	      4.75508291	     94.15358017	      0.03039906	      1.90145152	      1.90125080	     51.16688699	     -8.12481831	      1.28126808	   -115.67163882	     29.61286285	     -1.98185891	     -3.01001893	     51.52214857	     -4.77187528	      3.85706126	   -112.94545722	     30.60581790	      6.25110833	     10.98258144	    -54.52289287	     -0.66917300	     -6.12756518	      8.13652674	      0.08752997	      3.61937675	    -23.38557479	    -22.62939029	    -10.84252186	    101.25002541	    121.22878506	    -64.08039066	    -12.28573623	     33.86484891	    -18.29638985	    -20.72237843	    -39.83924267	    117.49351482	    138.73252497	    -55.08216333	      2.88840579	     66.21960368
      0.01750000	     -2.62046926	      4.73573089	     94.15096854	      0.03035975	      1.90073709	      1.90121430	     51.25640645	     -8.10097347	      1.31935320	   -115.80034647	     29.62141602	     -1.96906152	     -3.00064386	     51.63098080	     -4.73517471	      3.92142313	   -113.07995048	     30.60512840	      6.24475888	     10.99481334	    -54.65640477	     -0.64308631	     -6.09003105	      8.34818304	      0.07460262	      3.58933323	    -23.10726997	    -22.45518739	    -10.60918038	    100.43346331	    120.86407634	    -63.66823052	    -11.99014456	     33.96855112	    -18.36466384	    -20.60053766	    -39.23348244	    116.90502241	    138.64663055	    -54.61254015	      3.07461111	     66.26863545
      0.02000000	     -2.55475430	      4.53578875	     94.17024489	      0.03018356	      1.89919540	      1.90128239	     51.61741964	     -8.06115740	      1.34277449	   -116.03611073	     29.63517117	     -1.94041465	     -2.94086719	     52.03381452	     -4.69156725	      4.04412384	   -113.35975225	     30.56542850	      6.21992670	     11.08801684	    -54.55059513	     -0.55409068	     -5.95646761	      8.43712981	      0.04473585	      3.43819161	    -23.13272566	    -22.32153909	    -10.58326679	    100.13698169	    119.19611679	    -62.26149082	    -11.35728079	     34.18618622	    -18.44934241	    -20.42079308	    -38.81928872	    116.64638660	    138.21311075	    -52.31164370	      4.05989812	     66.26442678
      0.02250000	     -2.55053961	      4.53702808	     94.16291638	      0.03012773	      1.89853800	      1.90122657	     51.67266503	     -8.03538060	      1.38386273	   -116.15146397	     29.64142005	     -1.93105352	     -2.93281868	     52.10428813	     -4.64746453	      4.10183446	   -113.48848428	     30.56505871	      6.21732049	     11.09888734	    -54.72597225	     -0.53414540	     -5.92504867	      8.69353888	      0.04207420	      3.42697446	    -22.80326784	    -22.12576421	    -10.37639705	     99.23975792	    118.94657223	    -61.96552462	    -11.14436083	     34.21556549	    -18.50115280	    -20.28694919	    -38.23776555	    116.03566992	    138.17424326	    -51.96735711	      4.16455124	     66.26264590
      0.02500000	     -2.54488609	      4.51294422	     94.16575610	      0.03011271	      1.89783878	      1.90116680	     51.75552081	     -8.01003766	      1.42169430	   -116.27165514	     29.65901211	     -1.91688850	     -2.92061138	     52.20335595	     -4.60559002	      4.16536144	   -113.61437078	     30.56169454	      6.20764643	     11.11124934	    -54.86208294	     -0.51460744	     -5.89123713	      8.90265731	      0.05088973	      3.39578236	    -22.47958377	    -21.93829143	    -10.16925033	     98.38296772	    118.54295074	    -61.55069599	    -10.80969367	     34.27917591	    -18.51599040	    -20.18212541	    -37.65267073	    115.38847915	    138.06055467	    -51.48899666	      4.33412877	     66.28624516
